<?xml version="1.0" encoding="utf-8"?>
<?xml-stylesheet type="text/xsl" href="rss1.xsl"?>
<rss version="2.0" xmlns:atom="http://www.w3.org/2005/Atom" xmlns:content="http://purl.org/rss/1.0/modules/content/" xmlns:dc="http://purl.org/dc/elements/1.1/" xmlns:media="http://search.yahoo.com/mrss/">
<channel>
 <title>Getty</title>
 <link>http://www.gettyimg.com/</link>
 <atom:link href="http://www.gettyimg.com/" rel="self" type="application/rss+xml" />

 
                <item>
                <title><![CDATA[【Requests】[REQ AUD] - FLAC 5X (16/24 bits)]]></title>
                <link><![CDATA[https://sharemania.us/threads/flac-5x-16-24-bits.239942/]]></link>
                <description><![CDATA[<article>
<blockquote class="messageText SelectQuoteContainer ugc baseHtml">
Heyyyyyy<br>
Would someone please share these in FLAC?<br>
<br>
• PHANTASEA:<br>
- Set In Stone<br>
- The Gilded Age<br>
- The Way Down<br>
- Chaos Theory<br>
<br>
• OSTON:<br>
- wtf u want.<br>
<br>
Sorry for having no links /:<br>
<br>
Please and thank you♡♡♡
<div class="messageTextEndMarker">&nbsp;</div>
</blockquote>
</article>]]></description>
                <author><![CDATA[alo5h]]></author>
                </item>

                
                <item>
                <title><![CDATA[【Music Videos】Kendrick Lamar - King Kunta (2015) (1080P)]]></title>
                <link><![CDATA[https://sharemania.us/threads/kendrick-lamar-king-kunta-2015-1080p.239941/]]></link>
                <description><![CDATA[<article>
<blockquote class="messageText SelectQuoteContainer ugc baseHtml">
<img src="https://i.imgur.com/cvtyWkx.jpeg" class="bbCodeImage LbImage" alt="[​IMG]" data-url="https://i.imgur.com/cvtyWkx.jpeg" style=""> <br>
<img src="https://i.imgur.com/89m7QD8.jpeg" class="bbCodeImage LbImage" alt="[​IMG]" data-url="https://i.imgur.com/89m7QD8.jpeg" style=""> <br>
<b>Kendrick Lamar - King Kunta (2015) (HD) <br>
<br>
<div class="ToggleTriggerAnchor bbCodeSpoilerContainer">
<button type="button" class="button bbCodeSpoilerButton ToggleTrigger Tooltip JsOnly" data-target="> .SpoilerTarget"><span>Spoiler: <span class="SpoilerTitle">Media Info</span></span></button>
<div class="SpoilerTarget bbCodeSpoilerText">General<br>
Complete name :Kendrick Lamar - King Kunta (HD).mp4<br>
Format : MPEG-4<br>
Format profile : Base Media / Version 2<br>
Codec ID : mp42 (mp42/mp41)<br>
File size : 426 MiB<br>
Duration : 4 min 1 s<br>
Overall bit rate mode : Variable<br>
Overall bit rate : 14.8 Mb/s<br>
Movie name : King Kunta (HD)<br>
Album : / To Pimp A Butterfly<br>
Performer : Kendrick Lamar<br>
Genre : Hip-Hop<br>
Recorded date : 2015<br>
Encoded date : UTC 2015-05-14 18:57:00<br>
Tagged date : UTC 2015-05-14 18:57:03<br>
Comment : ℗ 2015 Aftermath/Interscope (Top Dawg Entertainment)<br>
©TIM : 00:00:00:00<br>
©TSC : 24000<br>
©TSZ : 1001<br>
<br>
Video<br>
ID : 1<br>
Format : AVC<br>
Format/Info : Advanced Video Codec<br>
Format profile : Main@L5.1<br>
Format settings, CABAC : Yes<br>
Format settings, RefFrames : 3 frames<br>
Codec ID : avc1<br>
Codec ID/Info : Advanced Video Coding<br>
Duration : 4 min 1 s<br>
Bit rate : 14.4 Mb/s<br>
Width : 1 920 pixels<br>
Height : 1 080 pixels<br>
Display aspect ratio : 16:9<br>
Frame rate mode : Constant<br>
Frame rate : 23.976 (24000/1001) FPS<br>
Standard : NTSC<br>
Color space : YUV<br>
Chroma subsampling : 4:2:0<br>
Bit depth : 8 bits<br>
Scan type : Progressive<br>
Bits/(Pixel*Frame) : 0.290<br>
Stream size : 416 MiB (98%)<br>
Language : English<br>
Encoded date : UTC 2015-05-14 18:57:00<br>
Tagged date : UTC 2015-05-14 18:57:00<br>
Color range : Limited<br>
Color primaries : BT.709<br>
Transfer characteristics : BT.709<br>
Matrix coefficients : BT.709<br>
<br>
Audio<br>
ID : 2<br>
Format : AAC<br>
Format/Info : Advanced Audio Codec<br>
Format profile : LC<br>
Codec ID : 40<br>
Duration : 4 min 1 s<br>
Source duration : 4 min 1 s<br>
Bit rate mode : Variable<br>
Bit rate : 317 kb/s<br>
Maximum bit rate : 456 kb/s<br>
Channel(s) : 2 channels<br>
Channel positions : Front: L R<br>
Sampling rate : 48.0 kHz<br>
Frame rate : 46.875 FPS (1024 SPF)<br>
Compression mode : Lossy<br>
Stream size : 9.15 MiB (2%)<br>
Source stream size : 9.16 MiB (2%)<br>
Language : English<br>
Encoded date : UTC 2015-05-14 18:57:00<br>
Tagged date : UTC 2015-05-14 18:57:00<br>
</div>
</div><b><br>
<br>
<b>[/URL]
<div class="bbCodeBlock bbCodeVfcHH HiddenContent">
<div class="attribution type">Hidden Content:</div>
<blockquote>You must reply before you can see the hidden data contained here.</blockquote>
</div></b></b></b>
<div class="messageTextEndMarker">&nbsp;</div>
</blockquote>
</article>]]></description>
                <author><![CDATA[gamerfronts]]></author>
                </item>

                </channel></rss>